# xmcd
#
# Track frame offsets:
# 183
# 11458
# 25233
# 36908
# 49158
# 60783
# 71320
# 84033
# 94433
# 108283
# 124308
# 137020
# 147920
# 159370
#
# Disc length: 2305 seconds
#
# Revision: 1
# Processed by: cddbd v1.5.1PL2 Copyright (c) Steve Scherf et al.
# Submitted via: CedeCatalogueitor 2.6.0.6 http://personales.ya.com/cdcatalogueitor
#
DISCID=ad08ff0e
DTITLE=Ray Charles - Ray Charles
DYEAR=1995
DGENRE=
TTITLE0=Confession Blues
TTITLE1=This Love Of Mine
TTITLE2=How Long Blues
TTITLE3=I've Had My Fun (Goin' Down Slow)
TTITLE4=C.C. Rider
TTITLE5=I Wonder Who's Kissing Her Now
TTITLE6=Lonely Boy
TTITLE7=Hey Now
TTITLE8=Misery In My Heart
TTITLE9=Let Me Hear You Call My Name
TTITLE10=Blues Before Sunrise
TTITLE11=A Sentimental Blues
TTITLE12=Guitar Blues
TTITLE13=Baby Let Me Hold Your Hand
EXTD=
EXTT0=
EXTT1=
EXTT2=
EXTT3=
EXTT4=
EXTT5=
EXTT6=
EXTT7=
EXTT8=
EXTT9=
EXTT10=
EXTT11=
EXTT12=
EXTT13=
PLAYORDER=
